<?xml version="1.0" standalone="no"?>
<!DOCTYPE svg PUBLIC "-//W3C//DTD SVG 20010904//EN"
 "http://www.w3.org/TR/2001/REC-SVG-20010904/DTD/svg10.dtd">
<svg version="1.0" xmlns="http://www.w3.org/2000/svg"
 width="500.000000pt" height="500.000000pt" viewBox="0 0 500.000000 500.000000"
 preserveAspectRatio="xMidYMid meet">

<g transform="translate(0.000000,500.000000) scale(0.100000,-0.100000)"
fill="#000000" stroke="none">
<path d="M1537 3770 c-111 -19 -216 -100 -269 -208 l-33 -67 -3 -310 c-3 -308
-3 -310 19 -327 29 -24 72 -23 95 3 18 19 19 44 24 318 6 326 5 325 72 387 18
18 49 40 68 50 34 18 89 19 1450 19 l1415 0 40 -21 c54 -29 94 -70 116 -119
18 -38 19 -90 19 -995 0 -905 -1 -957 -19 -995 -22 -49 -62 -90 -116 -119
l-40 -21 -1415 0 -1415 0 -40 22 c-22 12 -54 36 -72 55 -60 62 -63 79 -63 376
0 173 -4 280 -11 301 -13 37 -48 55 -82 42 -48 -19 -48 -20 -45 -348 l3 -308
33 -67 c55 -112 157 -188 278 -208 80 -13 2749 -13 2828 0 123 20 230 102 284
218 l27 57 0 995 0 995 -27 57 c-54 116 -161 198 -284 218 -72 12 -2766 11
-2837 0z"/>
<path d="M1692 3350 c-35 -33 -28 -65 26 -120 26 -26 212 -199 415 -385 202
-185 367 -340 367 -345 0 -5 -185 -179 -410 -386 -254 -233 -413 -386 -416
-401 -14 -54 38 -98 91 -77 13 5 208 179 434 387 226 207 413 377 416 377 3 0
72 -61 153 -136 81 -75 157 -140 170 -145 13 -5 31 -5 45 0 12 5 88 70 170
145 81 75 150 136 153 136 3 0 194 -173 425 -385 352 -322 425 -385 450 -385
50 0 81 47 63 94 -3 9 -190 185 -415 392 -225 207 -409 379 -409 384 0 5 184
177 409 384 225 207 412 383 415 392 11 29 6 54 -14 74 -48 48 -39 56 -636
-491 -308 -281 -576 -527 -596 -547 l-37 -35 -538 494 c-296 272 -564 518
-595 546 -64 59 -99 67 -136 33z"/>
<path d="M330 3060 c-38 -38 -20 -102 33 -115 12 -3 146 -5 299 -3 255 3 278
4 297 22 27 24 27 70 1 96 -19 19 -33 20 -315 20 -282 0 -296 -1 -315 -20z"/>
<path d="M625 2546 c-32 -32 -32 -60 0 -92 l25 -25 466 3 c448 3 466 4 480 22
18 25 18 67 0 92 -14 18 -32 19 -480 22 l-466 3 -25 -25z"/>
<path d="M493 2050 c-44 -18 -56 -77 -23 -110 19 -19 33 -20 245 -20 212 0
226 1 245 20 26 26 26 72 -1 96 -19 17 -40 19 -233 21 -116 1 -221 -2 -233 -7z"/>
</g>
</svg>
